<svg width="173" height="48" viewBox="0 0 173 48" fill="none" xmlns="http://www.w3.org/2000/svg">
<path d="M24 48C37.2548 48 48 37.2548 48 24C48 10.7452 37.2548 0 24 0C10.7452 0 0 10.7452 0 24C0 37.2548 10.7452 48 24 48Z" fill="#2563EB"/>
<path d="M17.9177 9.74905V16.1475C17.9177 16.4277 17.8103 16.6967 17.6168 16.8989L15.3187 19.3061C14.6413 20.0161 13.4441 19.5361 13.4441 18.5546V9.74905C13.4441 9.14805 13.9313 8.66089 14.5323 8.66089H16.8304C17.4314 8.66089 17.9185 9.14805 17.9185 9.74905H17.9177Z" fill="white"/>
<path d="M10.6348 37.7337H12.9329C13.5339 37.7337 14.0211 37.2466 14.0211 36.6456V24.2699C14.0211 23.9912 14.1277 23.723 14.3204 23.5208L23.5232 13.8301C23.9371 13.3946 24.6256 13.3763 25.0611 13.7902L33.8539 22.1429C34.0704 22.3483 34.1922 22.6332 34.1922 22.9317V36.6456C34.1922 37.2466 34.6794 37.7337 35.2804 37.7337H37.5793C38.1803 37.7337 38.6674 37.2466 38.6674 36.6456V21.0133C38.6674 20.7148 38.5448 20.4299 38.3291 20.2245L24.8987 7.46348C24.464 7.05035 23.7771 7.06707 23.3624 7.5009L9.84832 21.6462C9.65489 21.8484 9.54663 22.1174 9.54663 22.3976V36.6464C9.54663 37.2474 10.0338 37.7345 10.6348 37.7345V37.7337Z" fill="white"/>
<path d="M55.2453 32.1702V16.3624H58.1089V23.6256H58.3019L64.4691 16.3624H67.9657L61.8525 23.4558L68.0197 32.1702H64.5772L59.8611 25.3932L58.1089 27.4618V32.1702H55.2453Z" fill="#2563EB"/>
<path d="M74.1329 32.4018C72.9751 32.4018 71.9717 32.1471 71.1227 31.6377C70.2736 31.1282 69.6149 30.4155 69.1467 29.4996C68.6835 28.5836 68.452 27.5133 68.452 26.2886C68.452 25.0639 68.6835 23.991 69.1467 23.0699C69.6149 22.1488 70.2736 21.4335 71.1227 20.9241C71.9717 20.4147 72.9751 20.16 74.1329 20.16C75.2907 20.16 76.2942 20.4147 77.1432 20.9241C77.9923 21.4335 78.6484 22.1488 79.1115 23.0699C79.5798 23.991 79.8139 25.0639 79.8139 26.2886C79.8139 27.5133 79.5798 28.5836 79.1115 29.4996C78.6484 30.4155 77.9923 31.1282 77.1432 31.6377C76.2942 32.1471 75.2907 32.4018 74.1329 32.4018ZM74.1484 30.1634C74.7762 30.1634 75.301 29.991 75.723 29.6462C76.145 29.2963 76.4588 28.8281 76.6647 28.2414C76.8757 27.6548 76.9811 27.0013 76.9811 26.2809C76.9811 25.5553 76.8757 24.8992 76.6647 24.3126C76.4588 23.7208 76.145 23.25 75.723 22.9001C75.301 22.5502 74.7762 22.3752 74.1484 22.3752C73.5052 22.3752 72.97 22.5502 72.5429 22.9001C72.1209 23.25 71.8045 23.7208 71.5935 24.3126C71.3877 24.8992 71.2847 25.5553 71.2847 26.2809C71.2847 27.0013 71.3877 27.6548 71.5935 28.2414C71.8045 28.8281 72.1209 29.2963 72.5429 29.6462C72.97 29.991 73.5052 30.1634 74.1484 30.1634Z" fill="#2563EB"/>
<path d="M86.5851 32.3787C85.6537 32.3787 84.8201 32.1394 84.0843 31.6608C83.3484 31.1823 82.7669 30.4876 82.3398 29.5768C81.9127 28.666 81.6992 27.5596 81.6992 26.2577C81.6992 24.9404 81.9153 23.8289 82.3476 22.9232C82.785 22.0124 83.3742 21.3255 84.1151 20.8624C84.8561 20.3941 85.682 20.16 86.5928 20.16C87.2875 20.16 87.8587 20.2783 88.3064 20.515C88.7541 20.7466 89.1091 21.027 89.3716 21.3564C89.634 21.6805 89.8373 21.9867 89.9814 22.2749H90.0971V16.3624H92.899V32.1702H90.1512V30.3023H89.9814C89.8373 30.5905 89.6289 30.8967 89.3561 31.2208C89.0834 31.5399 88.7232 31.8126 88.2755 32.039C87.8278 32.2654 87.2644 32.3787 86.5851 32.3787ZM87.3647 30.0862C87.9565 30.0862 88.4608 29.9267 88.8776 29.6076C89.2944 29.2835 89.6109 28.8332 89.827 28.2569C90.0431 27.6805 90.1512 27.009 90.1512 26.2423C90.1512 25.4756 90.0431 24.8092 89.827 24.2431C89.616 23.6771 89.3021 23.2371 88.8853 22.9232C88.4736 22.6094 87.9668 22.4524 87.3647 22.4524C86.7421 22.4524 86.2224 22.6145 85.8055 22.9387C85.3887 23.2629 85.0748 23.7106 84.8639 24.2817C84.6529 24.8529 84.5474 25.5064 84.5474 26.2423C84.5474 26.9833 84.6529 27.6445 84.8639 28.226C85.08 28.8023 85.3964 29.2577 85.8133 29.5922C86.2352 29.9215 86.7524 30.0862 87.3647 30.0862Z" fill="#2563EB"/>
<path d="M95.8765 32.1702V20.3143H98.6707V32.1702H95.8765ZM97.2813 18.6317C96.8388 18.6317 96.458 18.485 96.1389 18.1917C95.8199 17.8932 95.6604 17.5356 95.6604 17.1188C95.6604 16.6968 95.8199 16.3392 96.1389 16.0459C96.458 15.7474 96.8388 15.5982 97.2813 15.5982C97.729 15.5982 98.1098 15.7474 98.4237 16.0459C98.7427 16.3392 98.9022 16.6968 98.9022 17.1188C98.9022 17.5356 98.7427 17.8932 98.4237 18.1917C98.1098 18.485 97.729 18.6317 97.2813 18.6317Z" fill="#2563EB"/>
<path d="M107.059 32.1702V16.3624H109.923V23.0545H117.248V16.3624H120.119V32.1702H117.248V25.455H109.923V32.1702H107.059Z" fill="#2563EB"/>
<path d="M128.282 32.4018C127.124 32.4018 126.12 32.1471 125.271 31.6377C124.422 31.1282 123.764 30.4155 123.295 29.4996C122.832 28.5836 122.601 27.5133 122.601 26.2886C122.601 25.0639 122.832 23.991 123.295 23.0699C123.764 22.1488 124.422 21.4335 125.271 20.9241C126.12 20.4147 127.124 20.16 128.282 20.16C129.439 20.16 130.443 20.4147 131.292 20.9241C132.141 21.4335 132.797 22.1488 133.26 23.0699C133.728 23.991 133.962 25.0639 133.962 26.2886C133.962 27.5133 133.728 28.5836 133.26 29.4996C132.797 30.4155 132.141 31.1282 131.292 31.6377C130.443 32.1471 129.439 32.4018 128.282 32.4018ZM128.297 30.1634C128.925 30.1634 129.45 29.991 129.872 29.6462C130.294 29.2963 130.607 28.8281 130.813 28.2414C131.024 27.6548 131.13 27.0013 131.13 26.2809C131.13 25.5553 131.024 24.8992 130.813 24.3126C130.607 23.7208 130.294 23.25 129.872 22.9001C129.45 22.5502 128.925 22.3752 128.297 22.3752C127.654 22.3752 127.119 22.5502 126.691 22.9001C126.27 23.25 125.953 23.7208 125.742 24.3126C125.536 24.8992 125.433 25.5553 125.433 26.2809C125.433 27.0013 125.536 27.6548 125.742 28.2414C125.953 28.8281 126.27 29.2963 126.691 29.6462C127.119 29.991 127.654 30.1634 128.297 30.1634Z" fill="#2563EB"/>
<path d="M143.891 27.184V20.3143H146.685V32.1702H143.976V30.063H143.852C143.584 30.7269 143.145 31.2697 142.532 31.6917C141.925 32.1136 141.176 32.3246 140.286 32.3246C139.509 32.3246 138.822 32.1522 138.225 31.8075C137.633 31.4576 137.17 30.9507 136.836 30.2869C136.501 29.6179 136.334 28.81 136.334 27.8632V20.3143H139.128V27.431C139.128 28.1823 139.334 28.7792 139.746 29.2217C140.157 29.6642 140.698 29.8855 141.367 29.8855C141.778 29.8855 142.177 29.7852 142.563 29.5845C142.949 29.3838 143.265 29.0853 143.512 28.6891C143.765 28.2877 143.891 27.786 143.891 27.184Z" fill="#2563EB"/>
<path d="M158.929 23.4481L156.381 23.726C156.309 23.4687 156.183 23.2269 156.003 23.0004C155.828 22.774 155.592 22.5913 155.293 22.4524C154.995 22.3135 154.629 22.244 154.197 22.244C153.616 22.244 153.127 22.3701 152.73 22.6222C152.339 22.8744 152.146 23.2011 152.152 23.6025C152.146 23.9473 152.273 24.2277 152.53 24.4438C152.792 24.66 153.224 24.8375 153.827 24.9764L155.849 25.4087C156.971 25.6505 157.804 26.0339 158.35 26.5588C158.9 27.0836 159.178 27.7706 159.183 28.6196C159.178 29.3658 158.959 30.0244 158.527 30.5956C158.1 31.1617 157.506 31.6042 156.744 31.9232C155.983 32.2423 155.108 32.4018 154.12 32.4018C152.669 32.4018 151.501 32.0982 150.616 31.491C149.73 30.8787 149.203 30.027 149.033 28.9361L151.758 28.6737C151.881 29.2088 152.144 29.6128 152.545 29.8855C152.947 30.1582 153.469 30.2946 154.112 30.2946C154.776 30.2946 155.309 30.1582 155.71 29.8855C156.116 29.6128 156.32 29.2757 156.32 28.8744C156.32 28.5347 156.188 28.2543 155.926 28.033C155.669 27.8118 155.267 27.6419 154.722 27.5236L152.7 27.0991C151.562 26.8624 150.721 26.4636 150.176 25.9027C149.63 25.3366 149.36 24.6214 149.365 23.7569C149.36 23.0262 149.558 22.3932 149.959 21.8581C150.366 21.3178 150.929 20.9009 151.65 20.6076C152.375 20.3092 153.212 20.16 154.158 20.16C155.548 20.16 156.641 20.4558 157.439 21.0476C158.242 21.6394 158.738 22.4395 158.929 23.4481Z" fill="#2563EB"/>
<path d="M166.736 32.4018C165.547 32.4018 164.521 32.1548 163.656 31.6608C162.797 31.1617 162.136 30.4567 161.673 29.5459C161.209 28.6299 160.978 27.5519 160.978 26.3118C160.978 25.0922 161.209 24.0219 161.673 23.1008C162.141 22.1745 162.794 21.4541 163.633 20.9395C164.472 20.4198 165.457 20.16 166.589 20.16C167.32 20.16 168.01 20.2783 168.658 20.515C169.312 20.7466 169.888 21.1068 170.387 21.5956C170.891 22.0845 171.288 22.7071 171.576 23.4636C171.864 24.2148 172.008 25.1102 172.008 26.1497V27.0064H162.29V25.1231H169.33C169.324 24.5879 169.209 24.1119 168.982 23.6951C168.756 23.2732 168.439 22.9413 168.033 22.6994C167.631 22.4576 167.163 22.3366 166.628 22.3366C166.057 22.3366 165.555 22.4756 165.123 22.7534C164.691 23.0262 164.354 23.3864 164.112 23.8341C163.875 24.2766 163.754 24.7629 163.749 25.2929V26.937C163.749 27.6265 163.875 28.2183 164.127 28.7123C164.379 29.2011 164.732 29.5768 165.185 29.8392C165.637 30.0965 166.167 30.2251 166.775 30.2251C167.181 30.2251 167.549 30.1685 167.878 30.0553C168.208 29.937 168.493 29.7646 168.735 29.5382C168.977 29.3118 169.16 29.0313 169.283 28.6968L171.892 28.9901C171.727 29.6797 171.414 30.2817 170.95 30.7963C170.492 31.3058 169.906 31.702 169.191 31.985C168.475 32.2629 167.657 32.4018 166.736 32.4018Z" fill="#2563EB"/>
</svg>
