<svg width="174" height="48" viewBox="0 0 174 48" fill="none" xmlns="http://www.w3.org/2000/svg">
<g clip-path="url(#clip0_75_2230)">
<path d="M24 0C10.7411 0 0 10.7411 0 24C0 37.2589 10.7411 48 24 48C37.2589 48 48 37.2589 48 24C48 10.7411 37.2589 0 24 0ZM38.6717 36.643C38.6717 37.2498 38.1826 37.7298 37.5759 37.7298H35.2845C34.6777 37.7298 34.1887 37.2498 34.1887 36.643V22.9313C34.1887 22.6325 34.0709 22.3517 33.8536 22.1434L25.0596 13.7932C24.6249 13.3766 23.9366 13.3947 23.52 13.8294L14.3185 23.52C14.1283 23.7192 14.0196 23.9909 14.0196 24.2717V36.643C14.0196 37.2498 13.5306 37.7298 12.9328 37.7298H10.6325C10.0347 37.7389 9.54566 37.2498 9.54566 36.643V22.397C9.54566 22.1162 9.65434 21.8445 9.84453 21.6453L13.44 17.8868V9.74491C13.44 9.14717 13.9291 8.65811 14.5358 8.65811H16.8272C17.434 8.65811 17.914 9.14717 17.914 9.74491V13.2045L23.366 7.49887C23.7736 7.06415 24.4619 7.04604 24.8966 7.46264L38.3275 20.2234C38.5449 20.4317 38.6717 20.7125 38.6717 21.0113V36.643Z" fill="white"/>
<path d="M57.0566 32.1691V16.3653H59.9185V23.6287H60.1087L66.2762 16.3653H69.7721L63.6589 23.4566L69.8264 32.1691H66.3849L61.6664 25.3947L59.9185 27.4596V32.1691H57.0566Z" fill="white"/>
<path d="M75.9487 32.4045C74.7894 32.4045 73.7842 32.1509 72.9419 31.6438C72.0906 31.1366 71.4385 30.4211 70.9675 29.5064C70.5057 28.5917 70.2702 27.523 70.2702 26.2913C70.2702 25.0596 70.5057 23.9909 70.9675 23.0762C71.4385 22.1525 72.0906 21.437 72.9419 20.9298C73.7932 20.4226 74.7985 20.1691 75.9487 20.1691C77.0989 20.1691 78.1132 20.4226 78.9555 20.9298C79.7977 21.437 80.4589 22.1525 80.9208 23.0762C81.3917 24 81.6272 25.0687 81.6272 26.2913C81.6272 27.514 81.3917 28.5826 80.9208 29.5064C80.4589 30.4211 79.7977 31.1366 78.9555 31.6438C78.1132 32.1509 77.0989 32.4045 75.9487 32.4045ZM75.9668 30.1676C76.5917 30.1676 77.117 29.9955 77.5426 29.6513C77.9683 29.2981 78.2762 28.8362 78.4845 28.2476C78.6928 27.6589 78.8015 27.0068 78.8015 26.2913C78.8015 25.5759 78.6928 24.9057 78.4845 24.326C78.2762 23.7374 77.9683 23.2664 77.5426 22.9132C77.117 22.56 76.5917 22.3879 75.9668 22.3879C75.3419 22.3879 74.7894 22.56 74.3638 22.9132C73.9381 23.2664 73.6211 23.7374 73.4128 24.326C73.2045 24.9147 73.1049 25.5668 73.1049 26.2913C73.1049 27.0159 73.2045 27.6679 73.4128 28.2476C73.6211 28.8362 73.9381 29.2981 74.3638 29.6513C74.7894 29.9955 75.3238 30.1676 75.9668 30.1676Z" fill="white"/>
<path d="M88.3925 32.3774C87.4596 32.3774 86.6264 32.1419 85.8928 31.6619C85.1592 31.1819 84.5706 30.4845 84.1449 29.5789C83.7192 28.6642 83.5019 27.5592 83.5019 26.2641C83.5019 24.9691 83.7192 23.837 84.154 22.9313C84.5887 22.0166 85.1774 21.3374 85.92 20.8664C86.6626 20.3955 87.4868 20.16 88.4015 20.16C89.0989 20.16 89.6694 20.2777 90.1132 20.5132C90.557 20.7487 90.9192 21.0294 91.1819 21.3555C91.4445 21.6815 91.6438 21.9894 91.7887 22.2702H91.9064V16.3562H94.7049V32.16H91.9608V30.2943H91.7887C91.6438 30.5842 91.4355 30.8921 91.1638 31.2091C90.8921 31.526 90.5298 31.7977 90.086 32.0242C89.6423 32.2506 89.0717 32.3683 88.3925 32.3683V32.3774ZM89.1713 30.086C89.76 30.086 90.2672 29.923 90.6838 29.606C91.1004 29.28 91.4174 28.8272 91.6347 28.2566C91.8521 27.677 91.9608 27.0068 91.9608 26.246C91.9608 25.4853 91.8521 24.8151 91.6347 24.2445C91.4264 23.683 91.1094 23.2392 90.6928 22.9223C90.2853 22.6053 89.7781 22.4513 89.1713 22.4513C88.5645 22.4513 88.0302 22.6143 87.6136 22.9404C87.197 23.2664 86.88 23.7102 86.6717 24.2808C86.4634 24.8513 86.3547 25.5034 86.3547 26.237C86.3547 26.9706 86.4634 27.6408 86.6717 28.2204C86.8891 28.8 87.206 29.2528 87.6226 29.5879C88.0483 29.914 88.5645 30.086 89.1713 30.086Z" fill="white"/>
<path d="M97.6845 32.1691V20.314H100.474V32.1691H97.6845ZM99.0883 18.6294C98.6445 18.6294 98.2642 18.4845 97.9472 18.1857C97.6302 17.8868 97.4672 17.5336 97.4672 17.117C97.4672 16.7004 97.6302 16.3381 97.9472 16.0483C98.2642 15.7494 98.6445 15.6045 99.0883 15.6045C99.5321 15.6045 99.9215 15.7494 100.229 16.0483C100.546 16.3381 100.709 16.7004 100.709 17.117C100.709 17.5336 100.546 17.8958 100.229 18.1857C99.9124 18.4755 99.5321 18.6294 99.0883 18.6294Z" fill="white"/>
<path d="M108.869 32.1691V16.3653H111.731V23.0581H119.058V16.3653H121.929V32.1691H119.058V25.4581H111.731V32.1691H108.869Z" fill="white"/>
<path d="M130.089 32.4045C128.93 32.4045 127.925 32.1509 127.082 31.6438C126.231 31.1366 125.579 30.4211 125.108 29.5064C124.646 28.5917 124.411 27.523 124.411 26.2913C124.411 25.0596 124.646 23.9909 125.108 23.0762C125.579 22.1525 126.231 21.437 127.082 20.9298C127.934 20.4226 128.939 20.1691 130.089 20.1691C131.239 20.1691 132.254 20.4226 133.096 20.9298C133.947 21.437 134.599 22.1525 135.061 23.0762C135.532 24 135.768 25.0687 135.768 26.2913C135.768 27.514 135.532 28.5826 135.061 29.5064C134.599 30.4211 133.938 31.1366 133.096 31.6438C132.245 32.1509 131.248 32.4045 130.089 32.4045ZM130.107 30.1676C130.732 30.1676 131.257 29.9955 131.683 29.6513C132.109 29.2981 132.417 28.8362 132.625 28.2476C132.833 27.6589 132.942 27.0068 132.942 26.2913C132.942 25.5759 132.833 24.9057 132.625 24.326C132.417 23.7374 132.109 23.2664 131.683 22.9132C131.257 22.56 130.732 22.3879 130.107 22.3879C129.482 22.3879 128.93 22.56 128.504 22.9132C128.088 23.2664 127.762 23.7374 127.553 24.326C127.345 24.9147 127.245 25.5668 127.245 26.2913C127.245 27.0159 127.345 27.6679 127.553 28.2476C127.762 28.8362 128.078 29.2981 128.504 29.6513C128.93 29.9955 129.464 30.1676 130.107 30.1676Z" fill="white"/>
<path d="M145.703 27.1879V20.314H148.501V32.1691H145.793V30.0589H145.666C145.395 30.72 144.96 31.2634 144.344 31.6891C143.737 32.1147 142.986 32.323 142.098 32.323C141.319 32.323 140.631 32.1509 140.033 31.8068C139.445 31.4536 138.983 30.9464 138.648 30.2853C138.312 29.6151 138.149 28.8091 138.149 27.8581V20.3049H140.948V27.4234C140.948 28.1751 141.156 28.7728 141.564 29.2166C141.971 29.6604 142.515 29.8777 143.185 29.8777C143.602 29.8777 144 29.7781 144.38 29.5789C144.77 29.3796 145.087 29.0808 145.331 28.6823C145.585 28.2838 145.712 27.7766 145.712 27.1789L145.703 27.1879Z" fill="white"/>
<path d="M160.737 23.4475L158.192 23.7283C158.119 23.4747 157.992 23.2302 157.811 23.0038C157.639 22.7774 157.395 22.5962 157.096 22.4513C156.797 22.3155 156.435 22.243 156 22.243C155.42 22.243 154.931 22.3698 154.533 22.6234C154.143 22.877 153.944 23.203 153.953 23.6015C153.953 23.9457 154.071 24.2264 154.334 24.4438C154.596 24.6611 155.031 24.8332 155.629 24.9781L157.648 25.4128C158.771 25.6574 159.605 26.0377 160.148 26.563C160.7 27.0883 160.981 27.7766 160.981 28.6279C160.981 29.3706 160.755 30.0317 160.32 30.6023C159.894 31.1638 159.297 31.6075 158.536 31.9336C157.775 32.2506 156.897 32.4136 155.909 32.4136C154.46 32.4136 153.292 32.1057 152.405 31.4989C151.517 30.883 150.992 30.0317 150.82 28.9449L153.546 28.6823C153.672 29.2166 153.935 29.6242 154.334 29.8959C154.732 30.1675 155.257 30.3034 155.9 30.3034C156.543 30.3034 157.096 30.1675 157.494 29.8959C157.902 29.6242 158.101 29.2891 158.101 28.8815C158.101 28.5374 157.965 28.2657 157.712 28.0392C157.458 27.8219 157.051 27.6498 156.507 27.5321L154.488 27.1064C153.346 26.8709 152.513 26.4725 151.961 25.9109C151.417 25.3494 151.146 24.634 151.146 23.7645C151.146 23.0309 151.336 22.397 151.743 21.8626C152.151 21.3192 152.712 20.9026 153.437 20.6128C154.162 20.314 154.995 20.1691 155.946 20.1691C157.331 20.1691 158.427 20.4679 159.224 21.0566C160.03 21.6453 160.519 22.4513 160.709 23.4566L160.737 23.4475Z" fill="white"/>
<path d="M168.543 32.4045C167.357 32.4045 166.325 32.16 165.464 31.6619C164.604 31.1638 163.943 30.4574 163.481 29.5426C163.019 28.6279 162.783 27.5502 162.783 26.3094C162.783 25.0687 163.019 24.0181 163.481 23.0943C163.952 22.1706 164.604 21.446 165.437 20.9298C166.279 20.4136 167.257 20.1509 168.389 20.1509C169.123 20.1509 169.811 20.2687 170.463 20.5041C171.115 20.7396 171.695 21.0928 172.193 21.5819C172.7 22.0709 173.09 22.6958 173.38 23.4475C173.669 24.1992 173.814 25.0958 173.814 26.1374V26.9977H164.097V25.114H171.134C171.134 24.5796 171.016 24.0996 170.789 23.683C170.563 23.2574 170.246 22.9313 169.838 22.6868C169.44 22.4423 168.969 22.3245 168.435 22.3245C167.864 22.3245 167.366 22.4604 166.931 22.7411C166.497 23.0128 166.162 23.3751 165.917 23.8189C165.682 24.2626 165.555 24.7517 165.555 25.277V26.9253C165.555 27.6136 165.682 28.2023 165.935 28.7004C166.189 29.1894 166.542 29.5608 166.995 29.8234C167.448 30.077 167.982 30.2128 168.589 30.2128C168.996 30.2128 169.358 30.1585 169.694 30.0407C170.02 29.923 170.309 29.7509 170.554 29.5245C170.798 29.2981 170.98 29.0174 171.106 28.6823L173.715 28.9721C173.552 29.6604 173.235 30.2672 172.773 30.7743C172.311 31.2815 171.731 31.68 171.016 31.9608C170.3 32.2415 169.485 32.3774 168.562 32.3774L168.543 32.4045Z" fill="white"/>
</g>
<defs>
<clipPath id="clip0_75_2230">
<rect width="173.814" height="48" fill="white"/>
</clipPath>
</defs>
</svg>
