<svg width="48" height="48" viewBox="0 0 48 48" fill="none" xmlns="http://www.w3.org/2000/svg">
<g clip-path="url(#clip0_75_2209)">
<path d="M24 0C10.7411 0 0 10.7411 0 24C0 37.2589 10.7411 48 24 48C37.2589 48 48 37.2589 48 24C48 10.7411 37.2589 0 24 0ZM38.6717 36.643C38.6717 37.2498 38.1826 37.7298 37.5759 37.7298H35.2845C34.6777 37.7298 34.1887 37.2498 34.1887 36.643V22.9313C34.1887 22.6325 34.0709 22.3517 33.8536 22.1434L25.0596 13.7932C24.6249 13.3766 23.9366 13.3947 23.52 13.8294L14.3185 23.52C14.1283 23.7192 14.0196 23.9909 14.0196 24.2717V36.643C14.0196 37.2498 13.5306 37.7298 12.9328 37.7298H10.6325C10.0347 37.7389 9.54566 37.2498 9.54566 36.643V22.397C9.54566 22.1162 9.65434 21.8445 9.84453 21.6453L13.44 17.8868V9.74491C13.44 9.14717 13.9291 8.65811 14.5358 8.65811H16.8272C17.434 8.65811 17.914 9.14717 17.914 9.74491V13.2045L23.366 7.49887C23.7736 7.06415 24.4619 7.04604 24.8966 7.46264L38.3275 20.2234C38.5449 20.4317 38.6717 20.7125 38.6717 21.0113V36.643Z" fill="white"/>
</g>
<defs>
<clipPath id="clip0_75_2209">
<rect width="48" height="48" fill="white"/>
</clipPath>
</defs>
</svg>
